<svg width="145" height="19" viewBox="0 0 145 19" fill="none" xmlns="http://www.w3.org/2000/svg">
<path d="M9.12067 1.1626C6.8115 1.1626 6.52321 1.17322 5.61654 1.2136C4.71129 1.2561 4.09504 1.39847 3.55317 1.60885C2.99429 1.8256 2.51971 2.11672 2.04725 2.58918C1.57479 3.06164 1.28296 3.53551 1.06692 4.0951C0.856542 4.63697 0.713458 5.25322 0.671666 6.15847C0.629167 7.06514 0.620667 7.35343 0.620667 9.6626C0.620667 11.9718 0.631292 12.2601 0.671666 13.1667C0.714166 14.0713 0.856542 14.6882 1.06692 15.2301C1.28367 15.7883 1.57479 16.2636 2.04725 16.736C2.51971 17.2078 2.99358 17.5003 3.55317 17.7163C4.09575 17.926 4.712 18.0698 5.61654 18.1116C6.52321 18.1541 6.8115 18.1626 9.12067 18.1626C11.4298 18.1626 11.7181 18.152 12.6248 18.1116C13.5293 18.0691 14.1463 17.926 14.6882 17.7163C15.2463 17.4996 15.7216 17.2078 16.1941 16.736C16.6658 16.2636 16.9584 15.7904 17.1744 15.2301C17.3841 14.6882 17.5279 14.0713 17.5697 13.1667C17.6122 12.2601 17.6207 11.9718 17.6207 9.6626C17.6207 7.35343 17.61 7.06514 17.5697 6.15847C17.5272 5.25393 17.3841 4.63626 17.1744 4.0951C16.9577 3.53622 16.6658 3.06164 16.1941 2.58918C15.7216 2.11672 15.2485 1.82489 14.6882 1.60885C14.1463 1.39847 13.5293 1.25539 12.6248 1.2136C11.7181 1.1711 11.4298 1.1626 9.12067 1.1626ZM9.12067 2.6926C11.3895 2.6926 11.66 2.70393 12.5561 2.74289C13.3848 2.78185 13.8346 2.91926 14.1335 3.03685C14.5316 3.19056 14.8135 3.37472 15.1125 3.67151C15.4092 3.96901 15.5934 4.25164 15.7471 4.64972C15.8633 4.94864 16.0021 5.39843 16.0397 6.22718C16.08 7.12393 16.0892 7.3931 16.0892 9.6626C16.0892 11.9321 16.0786 12.202 16.0368 13.098C15.9936 13.9268 15.8555 14.3766 15.7386 14.6755C15.58 15.0736 15.3993 15.3555 15.1018 15.6544C14.805 15.9512 14.5182 16.1353 14.1243 16.2891C13.8268 16.4052 13.37 16.5441 12.5412 16.5816C11.6388 16.622 11.3732 16.6312 9.09942 16.6312C6.82496 16.6312 6.55933 16.6206 5.65762 16.5788C4.82817 16.5356 4.37129 16.3974 4.07379 16.2806C3.67075 16.1219 3.39379 15.9413 3.097 15.6438C2.79879 15.347 2.60825 15.0601 2.4595 14.6663C2.34262 14.3688 2.20521 13.9119 2.162 13.0831C2.13012 12.1906 2.11879 11.9151 2.11879 9.65197C2.11879 7.38814 2.13012 7.11189 2.162 6.20876C2.20521 5.38001 2.34262 4.92385 2.4595 4.62635C2.60825 4.2226 2.79879 3.94635 3.097 3.64814C3.39379 3.35135 3.67075 3.1601 4.07379 3.01206C4.37129 2.89447 4.81825 2.75635 5.647 2.71385C6.55012 2.68197 6.81575 2.67135 9.08879 2.67135L9.12067 2.6926ZM9.12067 5.29785C6.70879 5.29785 4.75592 7.25285 4.75592 9.6626C4.75592 12.0745 6.71092 14.0273 9.12067 14.0273C11.5325 14.0273 13.4854 12.0723 13.4854 9.6626C13.4854 7.25072 11.5304 5.29785 9.12067 5.29785ZM9.12067 12.4959C7.55525 12.4959 6.28733 11.228 6.28733 9.6626C6.28733 8.09718 7.55525 6.82926 9.12067 6.82926C10.6861 6.82926 11.954 8.09718 11.954 9.6626C11.954 11.228 10.6861 12.4959 9.12067 12.4959ZM14.6783 5.12572C14.6783 5.68885 14.2207 6.14572 13.6582 6.14572C13.0951 6.14572 12.6382 5.68814 12.6382 5.12572C12.6382 4.56331 13.0958 4.10643 13.6582 4.10643C14.22 4.10572 14.6783 4.56331 14.6783 5.12572Z" fill="white" fill-opacity="0.65"/>
<path d="M144.463 4.29889C143.824 4.57968 143.142 4.77097 142.423 4.85831C143.155 4.41727 143.718 3.72214 143.985 2.89276C143.298 3.29338 142.537 3.585 141.728 3.74741C141.081 3.05517 140.159 2.62207 139.135 2.62207C137.174 2.62207 135.584 4.21227 135.584 6.17133C135.584 6.45284 135.617 6.72353 135.676 6.98267C132.723 6.84335 130.107 5.42567 128.356 3.28255C128.047 3.80371 127.875 4.40933 127.875 5.06909C127.875 6.30342 128.503 7.38834 129.454 8.02572C128.872 8.00695 128.324 7.8467 127.846 7.58107V7.6251C127.846 9.34667 129.068 10.7824 130.694 11.1094C130.396 11.1895 130.082 11.2328 129.759 11.2328C129.532 11.2328 129.315 11.2112 129.098 11.1707C129.553 12.5805 130.863 13.6084 132.421 13.6373C131.208 14.5894 129.672 15.1567 128.016 15.1567C127.735 15.1567 127.454 15.1401 127.172 15.1083C128.752 16.1146 130.614 16.7029 132.627 16.7029C139.162 16.7029 142.732 11.292 142.732 6.60731C142.732 6.45645 142.732 6.30414 142.721 6.15256C143.415 5.65522 144.02 5.0265 144.497 4.31333L144.463 4.29889Z" fill="white" fill-opacity="0.65"/>
<path d="M59.8545 9.71506C59.8545 4.94298 55.986 1.07446 51.214 1.07446C46.4419 1.07446 42.5734 4.94298 42.5734 9.71506C42.5734 14.0278 45.7331 17.6024 49.8638 18.2507V12.2127H47.67V9.71506H49.8638V7.81142C49.8638 5.64587 51.1538 4.44969 53.1275 4.44969C54.0728 4.44969 55.0617 4.61845 55.0617 4.61845V6.74484H53.9722C52.8988 6.74484 52.564 7.4109 52.564 8.09421V9.71506H54.9604L54.5774 12.2127H52.564V18.2507C56.6948 17.6024 59.8545 14.0278 59.8545 9.71506Z" fill="white" fill-opacity="0.65"/>
<path d="M99.6414 15.7944H97.063V11.7541C97.063 10.7906 97.0434 9.55075 95.7194 9.55075C94.375 9.55075 94.1697 10.5991 94.1697 11.683V15.7944H91.5913V7.48599H94.0681V8.61849H94.1015C94.4476 7.96554 95.2891 7.27632 96.5464 7.27632C99.1589 7.27632 99.6421 8.99575 99.6421 11.2339L99.6414 15.7944ZM88.6792 6.34914C87.8492 6.34914 87.1825 5.67733 87.1825 4.851C87.1825 4.02538 87.8499 3.3543 88.6792 3.3543C89.5062 3.3543 90.1766 4.02538 90.1766 4.851C90.1766 5.67733 89.5055 6.34914 88.6792 6.34914ZM89.972 15.7944H87.3863V7.48599H89.972V15.7944ZM100.931 0.956543H86.092C85.3818 0.956543 84.8072 1.51808 84.8072 2.21092V17.114C84.8072 17.8076 85.3818 18.3684 86.092 18.3684H100.929C101.639 18.3684 102.219 17.8076 102.219 17.114V2.21092C102.219 1.51808 101.639 0.956543 100.929 0.956543H100.931Z" fill="white" fill-opacity="0.65"/>
</svg>
